<?xml version="1.0"?>
<svg xmlns="http://www.w3.org/2000/svg" xmlns:xlink="http://www.w3.org/1999/xlink" xmlns:svgjs="http://svgjs.com/svgjs" version="1.1" width="512" height="512" x="0" y="0" viewBox="0 0 24 24" style="enable-background:new 0 0 512 512" xml:space="preserve"><g><path xmlns="http://www.w3.org/2000/svg" d="m7.75 8.75 4.25 4.5 4.25-4.5z" fill="#ffffff" data-original="#000000" style=""/><path xmlns="http://www.w3.org/2000/svg" d="m12 14c-.206 0-.403-.085-.545-.235l-4.25-4.5c-.206-.218-.263-.537-.143-.812.118-.275.388-.453.688-.453h8.5c.3 0 .57.178.688.453.119.275.062.594-.144.812l-4.25 4.5c-.141.15-.338.235-.544.235zm-2.51-4.5 2.51 2.658 2.51-2.658z" fill="#ffffff" data-original="#000000" style=""/><path xmlns="http://www.w3.org/2000/svg" d="m12 12.25c-.553 0-1-.448-1-1v-10.25c0-.552.447-1 1-1s1 .448 1 1v10.25c0 .552-.447 1-1 1z" fill="#ffffff" data-original="#000000" style=""/><path xmlns="http://www.w3.org/2000/svg" d="m22.25 14h-2.756c-.778 0-1.452.501-1.677 1.247l-.858 2.862c-.157.525-.649.891-1.197.891h-7.524c-.548 0-1.04-.366-1.197-.891l-.858-2.862c-.224-.746-.898-1.247-1.677-1.247h-2.756c-.965 0-1.75.785-1.75 1.75v5.5c0 1.517 1.233 2.75 2.75 2.75h18.5c1.517 0 2.75-1.233 2.75-2.75v-5.5c0-.965-.785-1.75-1.75-1.75z" fill="#ffffff" data-original="#000000" style=""/></g></svg>
