<?xml version="1.0"?>
<svg xmlns="http://www.w3.org/2000/svg" xmlns:xlink="http://www.w3.org/1999/xlink" xmlns:svgjs="http://svgjs.com/svgjs" version="1.1" width="512" height="512" x="0" y="0" viewBox="0 0 24 24" style="enable-background:new 0 0 512 512" xml:space="preserve"><g><path xmlns="http://www.w3.org/2000/svg" d="m12 17c-1.654 0-3-1.346-3-3s1.346-3 3-3 3 1.346 3 3-1.346 3-3 3z" fill="#ffffff" data-original="#000000" style=""/><path xmlns="http://www.w3.org/2000/svg" d="m17.991 17.71c-.276 0-.551-.114-.749-.336-.367-.413-.329-1.045.084-1.412 1.7-1.507 2.674-3.68 2.674-5.962 0-4.411-3.589-8-8-8s-8 3.589-8 8c0 2.282.974 4.455 2.673 5.962.413.366.451.999.084 1.412-.366.413-.998.452-1.412.084-2.125-1.886-3.345-4.604-3.345-7.458 0-5.514 4.486-10 10-10s10 4.486 10 10c0 2.854-1.22 5.572-3.346 7.458-.191.169-.427.252-.663.252z" fill="#ffffff" data-original="#000000" style=""/><path xmlns="http://www.w3.org/2000/svg" d="m15.969 10.51c-.499 0-.93-.372-.991-.879-.183-1.5-1.462-2.631-2.978-2.631s-2.795 1.131-2.978 2.63c-.066.549-.567.933-1.113.872-.548-.066-.938-.565-.872-1.113.304-2.502 2.437-4.389 4.963-4.389s4.659 1.887 4.963 4.389c.066.548-.324 1.047-.872 1.113-.041.005-.082.008-.122.008z" fill="#ffffff" data-original="#000000" style=""/><path xmlns="http://www.w3.org/2000/svg" d="m17.25 24h-10.5c-.414 0-.75-.336-.75-.75v-1.5c0-1.517 1.233-2.75 2.75-2.75h6.5c1.517 0 2.75 1.233 2.75 2.75v1.5c0 .414-.336.75-.75.75z" fill="#ffffff" data-original="#000000" style=""/></g></svg>
