<?xml version="1.0"?>
<svg xmlns="http://www.w3.org/2000/svg" xmlns:xlink="http://www.w3.org/1999/xlink" xmlns:svgjs="http://svgjs.com/svgjs" version="1.1" width="512" height="512" x="0" y="0" viewBox="0 0 512 512" style="enable-background:new 0 0 512 512" xml:space="preserve"><g><g xmlns="http://www.w3.org/2000/svg"><path d="m324.083 50.001v-35.001c0-8.284-6.716-15-15-15h-110.119c-8.284 0-15 6.716-15 15v35.001z" fill="#ffffff" data-original="#000000" style=""/><path d="m30 180.003v199.994c0 8.284 6.716 15 15 15h196v29.582c-17.459 6.192-30 22.865-30 42.42 0 24.813 20.187 45.001 45 45.001s45-20.188 45-45.001c0-19.555-12.541-36.228-30-42.42v-29.582h196c8.284 0 15-6.716 15-15v-199.994zm226 301.997c-8.271 0-15-6.729-15-15.001s6.729-15 15-15 15 6.729 15 15-6.729 15.001-15 15.001z" fill="#ffffff" data-original="#000000" style=""/><path d="m497 150.003c8.284 0 15-6.716 15-15v-40.002c0-8.284-6.716-15-15-15h-482c-8.284 0-15 6.716-15 15v40.001c0 8.284 6.716 15 15 15h482z" fill="#ffffff" data-original="#000000" style=""/></g></g></svg>
