<?xml version="1.0"?>
<svg xmlns="http://www.w3.org/2000/svg" xmlns:xlink="http://www.w3.org/1999/xlink" xmlns:svgjs="http://svgjs.com/svgjs" version="1.1" width="512" height="512" x="0" y="0" viewBox="0 0 511.26 511.26" style="enable-background:new 0 0 512 512" xml:space="preserve"><g><circle xmlns="http://www.w3.org/2000/svg" cx="147.452" cy="175.69" r="94.141" fill="#ffffff" data-original="#000000" style=""/><path xmlns="http://www.w3.org/2000/svg" d="m289.787 372.226c-25.267-55.759-81.137-91.788-142.335-91.788s-117.068 36.029-142.335 91.787c-17.145 37.832 10.913 80.898 52.624 80.898h179.422c41.703 0 69.773-43.057 52.624-80.897z" fill="#ffffff" data-original="#000000" style=""/><path xmlns="http://www.w3.org/2000/svg" d="m494.769 58.136h-301.573c86.679 33.847 108.668 147.246 39.264 210.665 35.351 17.929 64.551 46.696 82.817 82.621l5.835-12.101 29.61 61.409c3.955 8.205 13.812 11.646 22.016 7.692 8.204-3.956 11.647-13.813 7.691-22.016l-34.99-72.567h149.331c9.107 0 16.49-7.383 16.49-16.491v-222.721c0-9.107-7.383-16.491-16.491-16.491z" fill="#ffffff" data-original="#000000" style=""/></g></svg>
